<?xml version="1.0" encoding="UTF-8" standalone="no"?>
<!-- Generator: Adobe Illustrator 19.0.0, SVG Export Plug-In . SVG Version: 6.00 Build 0)  -->

<svg
   xmlns:dc="http://purl.org/dc/elements/1.1/"
   xmlns:cc="http://creativecommons.org/ns#"
   xmlns:rdf="http://www.w3.org/1999/02/22-rdf-syntax-ns#"
   xmlns:svg="http://www.w3.org/2000/svg"
   xmlns="http://www.w3.org/2000/svg"
   xmlns:sodipodi="http://sodipodi.sourceforge.net/DTD/sodipodi-0.dtd"
   xmlns:inkscape="http://www.inkscape.org/namespaces/inkscape"
   version="1.1"
   id="Layer_1"
   x="0px"
   y="0px"
   viewBox="0 0 512 512"
   style="enable-background:new 0 0 512 512;"
   xml:space="preserve"
   width="512px"
   height="512px"
   sodipodi:docname="lang.svg"
   inkscape:version="0.92.3 (2405546, 2018-03-11)"><metadata
   id="metadata43"><rdf:RDF><cc:Work
       rdf:about=""><dc:format>image/svg+xml</dc:format><dc:type
         rdf:resource="http://purl.org/dc/dcmitype/StillImage" /><dc:title></dc:title></cc:Work></rdf:RDF></metadata><defs
   id="defs41" /><sodipodi:namedview
   pagecolor="#ffffff"
   bordercolor="#666666"
   borderopacity="1"
   objecttolerance="10"
   gridtolerance="10"
   guidetolerance="10"
   inkscape:pageopacity="0"
   inkscape:pageshadow="2"
   inkscape:window-width="1280"
   inkscape:window-height="961"
   id="namedview39"
   showgrid="false"
   inkscape:zoom="0.4609375"
   inkscape:cx="256"
   inkscape:cy="256"
   inkscape:window-x="-8"
   inkscape:window-y="-8"
   inkscape:window-maximized="1"
   inkscape:current-layer="Layer_1" />
<g
   transform="translate(1 1)"
   id="g6"
   style="stroke:none;stroke-opacity:1;fill:#e94a37;fill-opacity:1">
	<g
   id="g4"
   style="stroke:none;stroke-opacity:1;fill:#e94a37;fill-opacity:1">
		<path
   d="M430.493,261.827c-4.267-2.56-9.387-1.707-11.947,2.56c-4.292,6.745-9.033,12.604-14.206,18.22l-19.536-19.536    c20.687-26.683,32.036-59.146,32.036-93.404c0-40.96-16.213-79.36-44.373-109.227C316.421,5.184,228.98,1.049,168.903,48.023    l-18.396-18.396c6.048-5.811,12.457-10.78,18.867-15.267c4.267-2.56,5.12-7.68,2.56-11.947c-2.56-3.413-7.68-4.267-11.093-2.56    c-7.508,5.46-15.008,11.476-22.079,18.028L126.707,5.827c-3.413-3.413-8.533-3.413-11.947,0s-3.413,8.533,0,11.947l12.217,12.003    c-33.366,36.705-51.47,84.179-51.47,133.917c0,52.053,20.48,100.693,57.173,137.387c31.736,31.031,71.633,49.225,112.945,54.61    l-7.436,104.11h-34.682c-23.893,0-42.667,18.773-42.667,42.667c0,5.12,3.413,8.533,8.533,8.533h204.8    c5.12,0,8.533-3.413,8.533-8.533c0-23.893-18.773-42.667-42.667-42.667h-34.682l-7.436-104.11    c38.818-5.064,76.287-21.46,106.419-49.189L416.84,319c1.707,1.707,3.413,2.56,5.973,2.56c1.707,0,4.267-0.853,5.973-2.56    c3.413-3.413,3.413-8.533,0-11.947l-12.296-12.296c5.988-6.298,11.511-13.405,16.563-20.984    C435.613,269.507,434.76,264.387,430.493,261.827z M182.173,212.333c0.853,0,0.853,0,2.56,0    c18.773,4.267,18.773,23.893,18.773,25.6v0.853c1.707,11.093,11.947,32.427,42.667,33.28c19.286,0,33.621,20.591,39.781,31.832    c-37.781,6.278-77.774-3.227-108.855-28.519c0.801-1.638,0.807-2.513,0.807-5.02C174.493,247.32,175.347,218.307,182.173,212.333z     M304.249,299.549c-5.725-10.684-25.863-43.82-57.223-44.549c-21.333-0.853-24.747-14.507-25.6-17.92    c0-11.947-6.827-35.84-32.427-41.813c-6.827-1.707-12.8,0-17.92,4.267c-12.136,11.461-12.551,40.491-11.349,58.912    c-17.827-20.801-28.335-45.878-31.538-71.723c15.028-0.117,25.928-4.375,33.501-12.789c11.093-13.653,7.68-30.72,7.68-30.72    c-3.281-41.016,7.629-71.769,13.785-83.943c9.047-6.587,18.741-11.955,28.838-16.07c-4.973,11.603-9.853,21.946-12.757,28.334    c-5.973,11.947-8.533,17.067-1.707,21.333c0.853,0.853,2.56,1.707,4.267,1.707c2.56,0,5.12-0.853,8.533-5.12    c5.12-5.973,31.573-11.947,53.76-13.653c2.56,0,5.12-1.707,5.973-3.413c1.707-2.56,1.707-5.12,1.707-8.533    c-0.853-2.56-0.853-5.12,0.853-7.68c5.973-8.533,24.747-13.653,34.987-15.36c0.17,0,0.336-0.011,0.502-0.024    c9.356,3.279,18.42,7.602,27.006,12.949c5.008,13.38,5.559,24.887,2.358,28.888c-2.56,2.56-7.68,2.56-11.947,1.707    c-5.973-4.267-23.04-14.507-35.84-6.827c-8.533,5.12-11.947,15.36-10.24,30.72c-4.267,9.387-14.507,27.307-24.747,26.453    c-1.707,0-2.56,0.853-3.413,0.853c-1.707,0-11.093,3.413-13.653,14.507c-2.56,11.947,3.413,25.6,18.773,41.813    s23.04,17.92,31.573,16.213c0.853,0,0.853,0,0.853,0c1.707,1.707,5.973,5.973,17.92,24.747c1.707,4.267,6.827,17.067,17.92,17.92    c0.853,0,0.853,0,1.707,0c11.093,0,18.773-12.8,21.333-17.067c2.56-5.12,5.12-10.24,7.68-15.36    c11.02-22.04,17.7-36.078,43.449-32.768c-3.553,30.595-17.316,58.688-39.182,80.554    C343.683,282.077,324.581,293.223,304.249,299.549z M156.573,85.187c-4.267,16.213-6.827,36.693-4.267,60.587    c0,0,1.707,10.24-4.267,17.067c-4.206,4.206-10.907,6.748-20.907,6.82c0.001-24.029,6.242-48.057,18.721-69.321    C149.043,95.074,152.614,90.007,156.573,85.187z M262.263,33.145c4.246,0.049,8.546,0.326,12.924,0.841    c-6.827,3.413-12.8,7.68-17.067,13.653c-2.56,3.413-4.267,7.68-4.267,11.947c-9.387,0.853-22.187,2.56-33.28,5.973    c4.267-8.533,8.533-18.773,12.8-29.013c1.195-0.299,2.389-0.57,3.585-0.83C245.307,34.064,253.783,33.207,262.263,33.145z     M298.227,92.013c2.56-1.707,11.947,1.707,18.773,6.827c0.853,0.853,1.707,1.707,3.413,1.707c12.8,2.56,23.04,0,29.013-7.68    c5.12-5.973,6.827-14.507,5.973-23.04c1.707,1.707,2.56,2.56,3.413,3.413c25.6,24.747,40.107,58.88,40.107,94.72    c-36.693-4.267-48.64,20.48-59.733,42.667c-2.56,5.12-5.12,9.387-7.68,14.507c-2.56,5.973-5.12,7.68-5.973,8.533    c-0.853-1.707-2.56-4.267-3.413-6.827c0-0.853-0.853-0.853-0.853-1.707c-15.36-25.6-23.04-33.28-32.427-33.28    c-0.853,0-2.56,0-5.12-0.853c-1.707,0-4.267,0.853-15.36-11.093c-15.36-16.213-14.507-23.893-14.507-25.6s0.853-1.707,1.707-2.56    c23.893-0.853,38.4-34.987,40.107-39.253c0.853-1.707,0.853-2.56,0.853-4.267C295.667,96.28,297.373,92.867,298.227,92.013z     M340.893,476.867c11.093,0,20.48,6.827,23.893,17.067H179.613c3.413-10.24,12.8-17.067,23.893-17.067h42.667h51.2H340.893z     M281.16,357.4l7.68,102.4h-33.28l7.68-102.4H281.16z M144.627,289.133c-33.28-33.28-52.053-77.653-52.907-125.44    c0-45.09,16.721-88.655,47.282-122.103l17.532,17.224c-0.557,0.54-1.117,1.075-1.667,1.626    c-12.864,13.047-22.95,27.799-30.273,43.508c-0.007,0.015-0.014,0.031-0.022,0.046c-0.158,0.339-0.318,0.677-0.473,1.016    c-10.732,22.734-15.956,48.094-14.459,74.043c0,1.233,0.365,2.391,0.975,3.42c2.912,34.93,17.656,68.971,44.252,95.567    c1.625,1.625,3.284,3.2,4.963,4.739c0.3,0.442,0.634,0.858,1.01,1.234c27.188,24.716,62.331,38.293,98.515,39.201    c0.076,0.002,0.153,0.006,0.229,0.008c1.217,0.029,2.436,0.045,3.655,0.045c1.457,0,2.914-0.028,4.371-0.07    c0.423-0.012,0.845-0.031,1.266-0.046c0.926-0.035,1.852-0.076,2.777-0.128c0.862-0.046,1.725-0.1,2.585-0.158    c0.019-0.001,0.039-0.003,0.058-0.004c8.864-0.603,17.676-1.799,27.342-3.007c1.307-0.654,3.109-1.314,4.267-2.735    c24.079-7.058,46.779-20.151,65.706-39.078c0.712-0.712,1.411-1.435,2.108-2.159l18.602,18.602    C322.015,357.341,212.718,355.564,144.627,289.133z"
   fill="#ffffff"
   id="path2"
   style="stroke:none;stroke-opacity:1;fill:#e94a37;fill-opacity:1" />
	</g>
</g>
<g
   id="g8">
</g>
<g
   id="g10">
</g>
<g
   id="g12">
</g>
<g
   id="g14">
</g>
<g
   id="g16">
</g>
<g
   id="g18">
</g>
<g
   id="g20">
</g>
<g
   id="g22">
</g>
<g
   id="g24">
</g>
<g
   id="g26">
</g>
<g
   id="g28">
</g>
<g
   id="g30">
</g>
<g
   id="g32">
</g>
<g
   id="g34">
</g>
<g
   id="g36">
</g>
</svg>