<?xml version="1.0" encoding="UTF-8" standalone="no"?>
<!-- Generator: Adobe Illustrator 19.0.0, SVG Export Plug-In . SVG Version: 6.00 Build 0)  -->

<svg
   xmlns:dc="http://purl.org/dc/elements/1.1/"
   xmlns:cc="http://creativecommons.org/ns#"
   xmlns:rdf="http://www.w3.org/1999/02/22-rdf-syntax-ns#"
   xmlns:svg="http://www.w3.org/2000/svg"
   xmlns="http://www.w3.org/2000/svg"
   xmlns:sodipodi="http://sodipodi.sourceforge.net/DTD/sodipodi-0.dtd"
   xmlns:inkscape="http://www.inkscape.org/namespaces/inkscape"
   version="1.1"
   id="Capa_1"
   x="0px"
   y="0px"
   viewBox="0 0 511.999 511.999"
   style="enable-background:new 0 0 511.999 511.999;"
   xml:space="preserve"
   width="512px"
   height="512px"
   sodipodi:docname="plant.svg"
   inkscape:version="0.92.3 (2405546, 2018-03-11)"><metadata
   id="metadata49"><rdf:RDF><cc:Work
       rdf:about=""><dc:format>image/svg+xml</dc:format><dc:type
         rdf:resource="http://purl.org/dc/dcmitype/StillImage" /><dc:title></dc:title></cc:Work></rdf:RDF></metadata><defs
   id="defs47" /><sodipodi:namedview
   pagecolor="#ffffff"
   bordercolor="#666666"
   borderopacity="1"
   objecttolerance="10"
   gridtolerance="10"
   guidetolerance="10"
   inkscape:pageopacity="0"
   inkscape:pageshadow="2"
   inkscape:window-width="1280"
   inkscape:window-height="961"
   id="namedview45"
   showgrid="false"
   inkscape:zoom="0.4609375"
   inkscape:cx="256"
   inkscape:cy="256"
   inkscape:window-x="-8"
   inkscape:window-y="-8"
   inkscape:window-maximized="1"
   inkscape:current-layer="Capa_1" />
<g
   id="g12"
   style="fill:#e94a37;fill-opacity:1">
	<g
   id="g10"
   style="fill:#e94a37;fill-opacity:1">
		<g
   id="g8"
   style="fill:#e94a37;fill-opacity:1">
			<path
   d="M469.954,338.307L469.954,338.307l-36.675,12.225c-3.816-11.44-12.747-20.448-24.154-24.363     c-3.308-21.789-22.655-37.481-44.658-36.221c-14.239-22.861-39.967-35.956-66.829-34.017     c-2.911-11.378-11.454-20.468-22.63-24.079c7.979-25.957,22.224-49.552,41.477-68.703c1.029,1.178,1.993,2.417,3.082,3.536     c17.18,17.534,40.653,27.476,65.2,27.617c1.729,0,3.467-0.05,5.196-0.158c22.121-1.004,42.663-11.749,56.104-29.346     c37.15-48.867,64.483-147.071,65.625-151.229c0.657-2.38,0.251-4.928-1.114-6.986c-1.365-2.058-3.554-3.423-6.003-3.743     c-5.029-0.667-123.9-15.588-183.325,34.6c-4.198,3.543-8.005,7.523-11.358,11.874c-23.398-6.448-47.802-8.425-71.933-5.828     c-2.519,0.29-4.778,1.686-6.166,3.808c-1.388,2.122-1.761,4.751-1.017,7.176c0.571,1.85,14.129,45.546,32.783,67.429     c8.267,9.377,20.247,14.633,32.746,14.367c1.224,0,2.464-0.094,3.703-0.187c1.765,4.42,3.854,8.703,6.252,12.815     c-23.214,22.529-40.003,50.839-48.638,82.015c-8.076,1.711-15.267,6.268-20.263,12.84c-23.481-10.372-50.965-4.522-68.187,14.512     c-5.023-1.665-10.279-2.516-15.571-2.521c-24.958,0.042-46.254,18.061-50.429,42.667H87.366     c-7.117-10.658-19.084-17.06-31.899-17.067H38.4c-21.198,0.023-38.377,17.202-38.4,38.4v153.6     c0.023,21.198,17.202,38.377,38.4,38.4h17.067c8.688-0.037,17.1-3.049,23.838-8.533h221.92     c12.521,0.001,24.801-3.443,35.496-9.954l159.95-97.363c13.868-8.46,19.179-25.98,12.342-40.715     C502.176,340.439,485.369,333.18,469.954,338.307z M310.213,96.94c0.517-17.89,8.514-34.743,22.045-46.458     c32.671-27.583,88.179-33.021,126.871-33.021c13.842,0,25.533,0.696,33.254,1.321c-7.888,26.092-31.292,98.054-59.9,135.692     c-10.46,13.612-26.407,21.9-43.558,22.638c-21.368,1.129-42.185-7.006-57.125-22.325c-1.086-1.116-2.06-2.339-3.072-3.527     c17.879-16.214,37.707-30.14,59.027-41.457c4.233-2.072,5.985-7.184,3.913-11.417c-2.072-4.233-7.184-5.985-11.417-3.913     c-22.105,11.48-42.687,25.683-61.264,42.276C312.642,124.472,309.617,110.748,310.213,96.94z M293.167,96.102     c-0.329,7.733,0.297,15.477,1.865,23.057c-7.046-0.053-13.745-3.068-18.457-8.307c-11.249-15.613-20.02-32.869-26.004-51.158     c16.896-0.982,33.843,0.603,50.265,4.7C296.268,74.373,293.664,85.138,293.167,96.102z M76.8,473.34     c-0.014,11.776-9.557,21.319-21.333,21.333H38.4c-11.776-0.014-21.32-9.557-21.333-21.333v-153.6     c0.014-11.776,9.557-21.319,21.333-21.333h17.067c11.776,0.014,21.32,9.557,21.333,21.333V473.34z M153.6,272.806     c5.048,0.031,10.025,1.196,14.562,3.408c3.722,1.766,8.173,0.625,10.587-2.712c13.131-18.353,38.32-23.236,57.358-11.121     c2.163,1.372,4.828,1.699,7.259,0.891c2.431-0.808,4.37-2.665,5.282-5.058c2.402-6.372,8.4-10.674,15.206-10.906     c0.228,0.018,0.459,0.068,0.686,0.068c0.214,0,0.406-0.092,0.618-0.108c9.008,0.273,16.232,7.536,16.457,16.545     c-0.033,0.237-0.121,1.046-0.137,1.283c-0.15,2.645,0.937,5.21,2.942,6.942c2.005,1.732,4.701,2.434,7.296,1.9     c3.691-0.754,7.449-1.133,11.217-1.133c20.836-0.029,39.916,11.664,49.35,30.242c1.755,3.433,5.596,5.26,9.367,4.454     c7.478-1.532,15.25,0.336,21.215,5.1s9.505,11.931,9.664,19.563c-0.021,0.283-0.037,0.571-0.037,0.8     c0.001,4.247,3.125,7.846,7.329,8.446c8.032,1.186,14.699,6.817,17.213,14.537L312,390.961c-2.611,0.87-5.344,1.313-8.096,1.312     h-4.903c4.054-11.114,2.883-23.463-3.189-33.617l-0.758-1.254c-9.285-15.387-25.928-24.813-43.9-24.862h-44.633     c-15.745-0.02-31.017-5.377-43.325-15.196c-12.343-9.819-27.131-16.085-42.771-18.122     C124.011,283.783,137.751,272.843,153.6,272.806z M494.663,371.44c-0.774,4.119-3.271,7.711-6.863,9.871l-159.954,97.367     c-8.021,4.882-17.231,7.464-26.621,7.463H91.508c1.518-4.099,2.316-8.429,2.359-12.8v-153.6     c-0.062-1.429-0.206-2.854-0.431-4.267h15.777c15.745,0.02,31.017,5.377,43.325,15.196     c15.334,12.237,34.365,18.913,53.983,18.938h44.633c11.984,0.035,23.081,6.322,29.271,16.583l0.758,1.254     c4.659,7.765,4.159,17.577-1.264,24.829h-51.866c-16.848-0.017-33.322,4.972-47.329,14.333l-6.254,4.167     c-2.552,1.684-4.009,4.605-3.817,7.656c0.191,3.052,2.001,5.768,4.744,7.119c2.743,1.352,5.999,1.132,8.536-0.576l6.254-4.167     c11.208-7.489,24.387-11.48,37.867-11.466h75.85c4.586,0,9.141-0.739,13.492-2.188L426.27,370.86     c0.139,0.007,0.256,0.08,0.396,0.08c1.914-0.034,3.757-0.724,5.224-1.954l43.464-14.488c6.083-2.031,12.782,0.075,16.608,5.221     C494.495,363.061,495.477,367.327,494.663,371.44z"
   fill="#ffffff"
   id="path2"
   style="fill:#e94a37;fill-opacity:1" />
			<path
   d="M194.992,306.769c4.618,0.938,9.123-2.044,10.063-6.662c1.232-5.951,6.469-10.222,12.546-10.234     c2.768-0.009,5.464,0.888,7.675,2.554c3.768,2.81,9.098,2.043,11.921-1.714c2.823-3.757,2.076-9.09-1.671-11.927     c-5.161-3.898-11.457-5.998-17.925-5.979c-14.185,0.032-26.403,10.008-29.271,23.9     C187.392,301.325,190.374,305.829,194.992,306.769z"
   fill="#ffffff"
   id="path4"
   style="fill:#e94a37;fill-opacity:1" />
			<path
   d="M286.322,309.588c2.733,1.359,5.983,1.155,8.524-0.536h0c5.079-3.333,11.799-2.649,16.104,1.638     c1.965,1.952,3.237,4.494,3.621,7.237c0.599,4.201,4.194,7.323,8.438,7.329c0.407-0.001,0.813-0.029,1.217-0.083     c4.666-0.667,7.909-4.988,7.246-9.654c-1.45-10.136-7.99-18.824-17.33-23.021c-9.34-4.197-20.179-3.318-28.72,2.329     c-2.547,1.681-4.002,4.595-3.816,7.641C281.79,305.514,283.589,308.229,286.322,309.588z"
   fill="#ffffff"
   id="path6"
   style="fill:#e94a37;fill-opacity:1" />
		</g>
	</g>
</g>
<g
   id="g14">
</g>
<g
   id="g16">
</g>
<g
   id="g18">
</g>
<g
   id="g20">
</g>
<g
   id="g22">
</g>
<g
   id="g24">
</g>
<g
   id="g26">
</g>
<g
   id="g28">
</g>
<g
   id="g30">
</g>
<g
   id="g32">
</g>
<g
   id="g34">
</g>
<g
   id="g36">
</g>
<g
   id="g38">
</g>
<g
   id="g40">
</g>
<g
   id="g42">
</g>
</svg>