<?xml version="1.0" encoding="UTF-8" standalone="no"?>
<svg
   xmlns:dc="http://purl.org/dc/elements/1.1/"
   xmlns:cc="http://creativecommons.org/ns#"
   xmlns:rdf="http://www.w3.org/1999/02/22-rdf-syntax-ns#"
   xmlns:svg="http://www.w3.org/2000/svg"
   xmlns="http://www.w3.org/2000/svg"
   xmlns:sodipodi="http://sodipodi.sourceforge.net/DTD/sodipodi-0.dtd"
   xmlns:inkscape="http://www.inkscape.org/namespaces/inkscape"
   viewBox="0 0 400 400"
   version="1.1"
   id="svg28"
   sodipodi:docname="thinkb.svg"
   width="400"
   height="400"
   inkscape:version="0.92.3 (2405546, 2018-03-11)">
  <metadata
     id="metadata32">
    <rdf:RDF>
      <cc:Work
         rdf:about="">
        <dc:format>image/svg+xml</dc:format>
        <dc:type
           rdf:resource="http://purl.org/dc/dcmitype/StillImage" />
        <dc:title>Asset 16</dc:title>
      </cc:Work>
    </rdf:RDF>
  </metadata>
  <sodipodi:namedview
     pagecolor="#ffffff"
     bordercolor="#666666"
     borderopacity="1"
     objecttolerance="10"
     gridtolerance="10"
     guidetolerance="10"
     inkscape:pageopacity="0"
     inkscape:pageshadow="2"
     inkscape:window-width="1280"
     inkscape:window-height="961"
     id="namedview30"
     showgrid="false"
     inkscape:zoom="0.45335793"
     inkscape:cx="41.193236"
     inkscape:cy="190.31818"
     inkscape:window-x="-8"
     inkscape:window-y="-8"
     inkscape:window-maximized="1"
     inkscape:current-layer="svg28" />
  <defs
     id="defs4">
    <style
       id="style2">.cls-1{fill:#fff;}</style>
  </defs>
  <title
     id="title6">Asset 16</title>
  <g
     id="Layer_2"
     data-name="Layer 2"
     transform="matrix(2.745012,0,0,2.745012,55.161402,21.455133)">
    <g
       id="Layer_1-2"
       data-name="Layer 1">
      <path
         class="cls-1"
         d="M 75.69,36.34 A 16.39,16.39 0 0 1 59.31,52.75 H 31.93 L 50,35.13 40.83,35 46.68,18 25.73,39 h 9.68 L 29.76,52.75 H 16.4 a 16.39,16.39 0 0 1 -6.35,-31.51 8.92,8.92 0 0 1 8.73,-11 8.91,8.91 0 0 1 7.81,4.57 19.22,19.22 0 0 1 37.94,4.38 c 0,0.52 0,1.05 -0.08,1.56 a 16.39,16.39 0 0 1 11.24,15.59 z"
         id="path8"
         inkscape:connector-curvature="0"
         style="fill:#ffffff" />
      <path
         class="cls-1"
         d="M 5.36,91.3 A 5.78,5.78 0 0 1 4,87.15 V 73.82 H 1.35 A 0.84,0.84 0 0 1 0.77,73.61 0.81,0.81 0 0 1 0.54,73 V 71.45 L 4.11,71 5,64.27 a 0.84,0.84 0 0 1 0.28,-0.53 0.92,0.92 0 0 1 0.6,-0.2 H 7.8 V 71 H 14 v 2.78 H 7.8 v 13.11 a 2.78,2.78 0 0 0 0.67,2 2.36,2.36 0 0 0 1.72,0.67 3.2,3.2 0 0 0 1,-0.16 4.63,4.63 0 0 0 0.77,-0.36 l 0.54,-0.35 a 0.74,0.74 0 0 1 0.4,-0.16 0.67,0.67 0 0 1 0.54,0.36 l 1.12,1.83 A 7.25,7.25 0 0 1 12.17,92.17 8.12,8.12 0 0 1 9.29,92.7 5.27,5.27 0 0 1 5.36,91.3 Z"
         id="path10"
         inkscape:connector-curvature="0"
         style="fill:#ffffff" />
      <path
         class="cls-1"
         d="m 31,70.27 a 6.66,6.66 0 0 1 5.42,2.26 9,9 0 0 1 1.87,6 v 10.72 l 2.45,0.5 a 0.73,0.73 0 0 1 0.65,0.79 v 1.85 H 34.48 V 78.52 c 0,-3.46 -1.52,-5.2 -4.57,-5.2 a 7.88,7.88 0 0 0 -5.9,3 v 12.9 l 0.54,0.11 c 1.12,0.22 1.76,0.34 1.92,0.39 a 0.72,0.72 0 0 1 0.64,0.79 v 1.85 h -10 v -1.82 a 0.73,0.73 0 0 1 0.65,-0.79 l 2.45,-0.5 V 63.86 c -1.66,-0.27 -2.63,-0.43 -2.88,-0.49 a 0.74,0.74 0 0 1 -0.65,-0.8 V 60.72 H 24 v 12.82 a 9.4,9.4 0 0 1 7,-3.27 z"
         id="path12"
         inkscape:connector-curvature="0"
         style="fill:#ffffff" />
      <path
         class="cls-1"
         d="m 53.89,90.54 v 1.85 h -10 v -1.85 a 0.83,0.83 0 0 1 0.65,-0.8 L 47,89.25 V 73.75 L 44.55,73.26 A 0.81,0.81 0 0 1 43.9,72.47 v -1.86 h 6.93 v 18.64 l 2.44,0.49 a 0.83,0.83 0 0 1 0.62,0.8 z M 46.4,64.82 a 2.58,2.58 0 0 1 -0.21,-1 2.76,2.76 0 0 1 0.21,-1.07 3,3 0 0 1 0.59,-0.88 2.81,2.81 0 0 1 0.86,-0.59 2.63,2.63 0 0 1 1,-0.22 2.67,2.67 0 0 1 1.05,0.22 2.73,2.73 0 0 1 0.87,0.59 3,3 0 0 1 0.6,0.88 2.6,2.6 0 0 1 0.23,1.07 2.43,2.43 0 0 1 -0.23,1 3,3 0 0 1 -0.6,0.86 2.73,2.73 0 0 1 -0.87,0.59 2.67,2.67 0 0 1 -1.05,0.22 2.63,2.63 0 0 1 -1,-0.22 2.81,2.81 0 0 1 -0.86,-0.59 3,3 0 0 1 -0.59,-0.86 z"
         id="path14"
         inkscape:connector-curvature="0"
         style="fill:#ffffff" />
      <path
         class="cls-1"
         d="m 70.32,70.27 a 6.69,6.69 0 0 1 5.44,2.28 8.92,8.92 0 0 1 1.85,6 v 10.7 c 1.39,0.28 2.21,0.44 2.45,0.5 a 0.73,0.73 0 0 1 0.67,0.79 v 1.85 H 73.79 V 78.52 c 0,-3.46 -1.53,-5.2 -4.58,-5.2 a 7.86,7.86 0 0 0 -5.89,3 v 12.9 l 2.45,0.5 a 0.73,0.73 0 0 1 0.66,0.79 v 1.85 h -10 v -1.82 a 0.73,0.73 0 0 1 0.65,-0.79 l 2.45,-0.5 V 73.75 L 57,73.26 a 0.74,0.74 0 0 1 -0.65,-0.8 v -1.85 h 5.38 a 1,1 0 0 1 1,0.8 l 0.3,2.36 a 9.57,9.57 0 0 1 7.29,-3.5 z"
         id="path16"
         inkscape:connector-curvature="0"
         style="fill:#ffffff" />
      <path
         class="cls-1"
         d="m 105.54,90.54 v 1.85 h -4.06 a 1.79,1.79 0 0 1 -1.44,-0.75 l -7.16,-8.92 a 1.66,1.66 0 0 0 -0.65,-0.59 2.37,2.37 0 0 0 -1,-0.14 h -1.04 v 7.26 l 2.45,0.5 a 0.73,0.73 0 0 1 0.65,0.79 v 1.85 h -10 v -1.85 a 0.72,0.72 0 0 1 0.64,-0.79 l 2.45,-0.5 V 63.86 l -2.45,-0.49 a 0.73,0.73 0 0 1 -0.64,-0.8 v -1.85 h 6.94 v 18.64 h 1 a 1.74,1.74 0 0 0 1.33,-0.6 l 4.9,-5.27 -0.47,-0.08 -0.71,-0.15 a 0.74,0.74 0 0 1 -0.66,-0.8 v -1.85 h 9.07 v 1.85 c 0,0.45 -0.18,0.7 -0.54,0.78 l -2.67,0.51 -5.07,5.4 a 4.58,4.58 0 0 1 -1.25,1.14 4.19,4.19 0 0 1 1.29,1.35 l 6,7.61 1.1,0.23 1.32,0.27 a 0.73,0.73 0 0 1 0.67,0.79 z"
         id="path18"
         inkscape:connector-curvature="0"
         style="fill:#ffffff" />
      <path
         class="cls-1"
         d="m 24.32,118.62 a 15,15 0 0 1 -0.67,4.58 11,11 0 0 1 -1.9,3.65 8.58,8.58 0 0 1 -6.91,3.29 A 56.14,56.14 0 0 1 4,128.94 V 102.13 L 2.69,101.91 2,101.79 1.69,101.74 A 1.24,1.24 0 0 1 0.6,100.4 v -2.53 h 8.73 v 12.6 a 10.82,10.82 0 0 1 3,-2.23 8.61,8.61 0 0 1 3.87,-0.82 7.15,7.15 0 0 1 5.88,2.9 10.46,10.46 0 0 1 1.68,3.5 17.81,17.81 0 0 1 0.56,4.8 z m -5.48,0 a 15.21,15.21 0 0 0 -0.31,-3.28 6.28,6.28 0 0 0 -0.9,-2.18 3.49,3.49 0 0 0 -1.4,-1.23 4.4,4.4 0 0 0 -1.89,-0.39 5.46,5.46 0 0 0 -2.82,0.7 8.33,8.33 0 0 0 -2.19,2 v 11.48 a 23.22,23.22 0 0 0 4.28,0.41 5,5 0 0 0 2.17,-0.45 4.2,4.2 0 0 0 1.65,-1.38 6.77,6.77 0 0 0 1,-2.33 13,13 0 0 0 0.41,-3.35 z"
         id="path20"
         inkscape:connector-curvature="0"
         style="fill:#ffffff" />
      <path
         class="cls-1"
         d="m 37.6,127.29 v 2.53 H 25.78 v -2.53 A 1.23,1.23 0 0 1 26.85,126 h 0.27 l 0.65,-0.12 1.27,-0.22 V 112 l -1.27,-0.22 -0.65,-0.12 -0.27,-0.05 a 1.23,1.23 0 0 1 -1.07,-1.34 v -2.53 h 8.57 v 17.8 l 1.27,0.22 0.64,0.12 h 0.27 a 1.23,1.23 0 0 1 1.07,1.41 z m -2.74,-24.67 a 3.46,3.46 0 0 1 -1.86,1.78 3.47,3.47 0 0 1 -1.33,0.26 3.35,3.35 0 0 1 -1.3,-0.26 3.43,3.43 0 0 1 -1.06,-0.72 3.68,3.68 0 0 1 -0.72,-1.06 3.11,3.11 0 0 1 -0.27,-1.29 3.29,3.29 0 0 1 0.27,-1.33 3.52,3.52 0 0 1 0.72,-1.08 3.43,3.43 0 0 1 1.06,-0.72 3,3 0 0 1 1.3,-0.26 3.29,3.29 0 0 1 1.33,0.26 3.57,3.57 0 0 1 1.09,0.72 3.4,3.4 0 0 1 0.74,1.08 3.14,3.14 0 0 1 0.28,1.33 3,3 0 0 1 -0.25,1.29 z"
         id="path22"
         inkscape:connector-curvature="0"
         style="fill:#ffffff" />
      <path
         class="cls-1"
         d="m 56.76,122.61 v 7.21 H 39.13 v -2.22 a 2.94,2.94 0 0 1 0.17,-0.87 3.36,3.36 0 0 1 0.54,-1 l 10.58,-14 h -6.94 c -0.15,1.47 -0.22,2 -0.25,2.18 a 0.93,0.93 0 0 1 -1,0.8 h -2.48 v -6.71 0 -0.26 H 56.48 V 110 a 3.1,3.1 0 0 1 -0.2,1.09 3.56,3.56 0 0 1 -0.49,0.89 L 45.3,125.73 H 53 c 0.16,-1.57 0.24,-2.12 0.27,-2.32 a 0.93,0.93 0 0 1 1,-0.8 h 2.48 z"
         id="path24"
         inkscape:connector-curvature="0"
         style="fill:#ffffff" />
    </g>
  </g>
</svg>
